<?xml version="1.0" encoding="UTF-8" standalone="no"?>
<!DOCTYPE svg PUBLIC "-//W3C//DTD SVG 1.1//EN"
 "http://www.w3.org/Graphics/SVG/1.1/DTD/svg11.dtd">
<!-- Generated by graphviz version 2.40.1 (20161225.0304)
 -->
<!-- Title: Workflow Pages: 1 -->
<svg width="1023pt" height="694pt"
 viewBox="0.00 0.00 1023.00 694.00" xmlns="http://www.w3.org/2000/svg" xmlns:xlink="http://www.w3.org/1999/xlink">
<g id="graph0" class="graph" transform="scale(1 1) rotate(0) translate(4 690)">
<title>Workflow</title>
<polygon fill="#ffffff" stroke="transparent" points="-4,4 -4,-690 1019,-690 1019,4 -4,4"/>
<text text-anchor="middle" x="507.5" y="-667.6" font-family="Helvetica,sans-Serif" font-size="18.00" fill="#000000">plot.vep.elevation</text>
<g id="clust1" class="cluster">
<title>cluster_workflow_box_outer</title>
<polygon fill="none" stroke="#000000" stroke-width="2" points="8,-62 8,-598 1007,-598 1007,-62 8,-62"/>
</g>
<g id="clust2" class="cluster">
<title>cluster_workflow_box_inner</title>
<polygon fill="none" stroke="#000000" stroke-width="0" points="16,-70 16,-590 999,-590 999,-70 16,-70"/>
</g>
<g id="clust3" class="cluster">
<title>cluster_input_ports_group_outer</title>
<polygon fill="none" stroke="#000000" stroke-width="0" points="150,-606 150,-652 388,-652 388,-606 150,-606"/>
</g>
<g id="clust4" class="cluster">
<title>cluster_input_ports_group_inner</title>
<polygon fill="none" stroke="#000000" stroke-width="0" points="158,-614 158,-644 380,-644 380,-614 158,-614"/>
</g>
<g id="clust5" class="cluster">
<title>cluster_output_ports_group_outer</title>
<polygon fill="none" stroke="#000000" stroke-width="0" points="384,-8 384,-54 494,-54 494,-8 384,-8"/>
</g>
<g id="clust6" class="cluster">
<title>cluster_output_ports_group_inner</title>
<polygon fill="none" stroke="#000000" stroke-width="0" points="392,-16 392,-46 486,-46 486,-16 392,-16"/>
</g>
<!-- define.region.to.map -->
<g id="node1" class="node">
<title>define.region.to.map</title>
<polygon fill="#ccffcc" stroke="#000000" points="340.6411,-510 197.3589,-510 197.3589,-474 340.6411,-474 340.6411,-510"/>
<text text-anchor="middle" x="269" y="-487.8" font-family="Helvetica,sans-Serif" font-size="14.00" fill="#000000">define.region.to.map</text>
</g>
<!-- ned.polygon -->
<g id="node14" class="node">
<title>ned.polygon</title>
<path fill="#ffffcc" stroke="#000000" d="M325.2895,-438C325.2895,-438 256.7105,-438 256.7105,-438 250.7105,-438 244.7105,-432 244.7105,-426 244.7105,-426 244.7105,-414 244.7105,-414 244.7105,-408 250.7105,-402 256.7105,-402 256.7105,-402 325.2895,-402 325.2895,-402 331.2895,-402 337.2895,-408 337.2895,-414 337.2895,-414 337.2895,-426 337.2895,-426 337.2895,-432 331.2895,-438 325.2895,-438"/>
<text text-anchor="middle" x="291" y="-415.8" font-family="Helvetica,sans-Serif" font-size="14.00" fill="#000000">ned.polygon</text>
</g>
<!-- define.region.to.map&#45;&gt;ned.polygon -->
<g id="edge1" class="edge">
<title>define.region.to.map&#45;&gt;ned.polygon</title>
<path fill="none" stroke="#000000" d="M274.5515,-473.8314C276.9303,-466.0463 279.7638,-456.7729 282.4033,-448.1347"/>
<polygon fill="#000000" stroke="#000000" points="285.7987,-448.9996 285.3737,-438.4133 279.1042,-446.954 285.7987,-448.9996"/>
</g>
<!-- get.elevation.map -->
<g id="node2" class="node">
<title>get.elevation.map</title>
<polygon fill="#ccffcc" stroke="#000000" points="79.0942,-321.5 79.0942,-365.5 502.9058,-365.5 502.9058,-321.5 79.0942,-321.5"/>
<text text-anchor="middle" x="291" y="-350.3" font-family="Helvetica,sans-Serif" font-size="14.00" fill="#000000">get.elevation.map</text>
<polyline fill="none" stroke="#000000" points="79.0942,-343.5 502.9058,-343.5 "/>
<text text-anchor="middle" x="291" y="-328.3" font-family="Helvetica,sans-Serif" font-size="14.00" fill="#000000">download, mosaic, and crop elevation dataset for the given region</text>
</g>
<!-- raw.elevation.map.tiles -->
<g id="node4" class="node">
<title>raw.elevation.map.tiles</title>
<path fill="#ffffcc" stroke="#000000" d="M267.4873,-240.5C267.4873,-240.5 610.5127,-240.5 610.5127,-240.5 616.5127,-240.5 622.5127,-246.5 622.5127,-252.5 622.5127,-252.5 622.5127,-272.5 622.5127,-272.5 622.5127,-278.5 616.5127,-284.5 610.5127,-284.5 610.5127,-284.5 267.4873,-284.5 267.4873,-284.5 261.4873,-284.5 255.4873,-278.5 255.4873,-272.5 255.4873,-272.5 255.4873,-252.5 255.4873,-252.5 255.4873,-246.5 261.4873,-240.5 267.4873,-240.5"/>
<text text-anchor="middle" x="439" y="-269.3" font-family="Helvetica,sans-Serif" font-size="14.00" fill="#000000">raw.elevation.map.tiles</text>
<polyline fill="none" stroke="#000000" points="255.4873,-262.5 622.5127,-262.5 "/>
<text text-anchor="middle" x="439" y="-247.3" font-family="Helvetica,sans-Serif" font-size="14.00" fill="#000000">{run.dir}/raw/ned/{ned.resolution}/n{tile.lat}w{tile.long}.zip</text>
</g>
<!-- get.elevation.map&#45;&gt;raw.elevation.map.tiles -->
<g id="edge7" class="edge">
<title>get.elevation.map&#45;&gt;raw.elevation.map.tiles</title>
<path fill="none" stroke="#000000" d="M331.4417,-321.3664C349.4696,-311.4998 370.8687,-299.7881 389.8139,-289.4194"/>
<polygon fill="#000000" stroke="#000000" points="391.5154,-292.4781 398.6072,-284.6068 388.1547,-286.3376 391.5154,-292.4781"/>
</g>
<!-- mosaic.elevation.map -->
<g id="node6" class="node">
<title>mosaic.elevation.map</title>
<path fill="#ffffcc" stroke="#000000" d="M652.6665,-240.5C652.6665,-240.5 979.3335,-240.5 979.3335,-240.5 985.3335,-240.5 991.3335,-246.5 991.3335,-252.5 991.3335,-252.5 991.3335,-272.5 991.3335,-272.5 991.3335,-278.5 985.3335,-284.5 979.3335,-284.5 979.3335,-284.5 652.6665,-284.5 652.6665,-284.5 646.6665,-284.5 640.6665,-278.5 640.6665,-272.5 640.6665,-272.5 640.6665,-252.5 640.6665,-252.5 640.6665,-246.5 646.6665,-240.5 652.6665,-240.5"/>
<text text-anchor="middle" x="816" y="-269.3" font-family="Helvetica,sans-Serif" font-size="14.00" fill="#000000">mosaic.elevation.map</text>
<polyline fill="none" stroke="#000000" points="640.6665,-262.5 991.3335,-262.5 "/>
<text text-anchor="middle" x="816" y="-247.3" font-family="Helvetica,sans-Serif" font-size="14.00" fill="#000000">{run.dir}/extracted/{run.label}_NED_{ned.resolution}.tif</text>
</g>
<!-- get.elevation.map&#45;&gt;mosaic.elevation.map -->
<g id="edge8" class="edge">
<title>get.elevation.map&#45;&gt;mosaic.elevation.map</title>
<path fill="none" stroke="#000000" d="M433.7651,-321.4734C504.8147,-310.5114 590.7584,-297.2516 663.1426,-286.0837"/>
<polygon fill="#000000" stroke="#000000" points="663.914,-289.5062 673.2633,-284.5222 662.8466,-282.5881 663.914,-289.5062"/>
</g>
<!-- mosaic.elevation.raster.layer -->
<g id="node15" class="node">
<title>mosaic.elevation.raster.layer</title>
<path fill="#ffffcc" stroke="#000000" d="M225.9204,-280.5C225.9204,-280.5 56.0796,-280.5 56.0796,-280.5 50.0796,-280.5 44.0796,-274.5 44.0796,-268.5 44.0796,-268.5 44.0796,-256.5 44.0796,-256.5 44.0796,-250.5 50.0796,-244.5 56.0796,-244.5 56.0796,-244.5 225.9204,-244.5 225.9204,-244.5 231.9204,-244.5 237.9204,-250.5 237.9204,-256.5 237.9204,-256.5 237.9204,-268.5 237.9204,-268.5 237.9204,-274.5 231.9204,-280.5 225.9204,-280.5"/>
<text text-anchor="middle" x="141" y="-258.3" font-family="Helvetica,sans-Serif" font-size="14.00" fill="#000000">mosaic.elevation.raster.layer</text>
</g>
<!-- get.elevation.map&#45;&gt;mosaic.elevation.raster.layer -->
<g id="edge6" class="edge">
<title>get.elevation.map&#45;&gt;mosaic.elevation.raster.layer</title>
<path fill="none" stroke="#000000" d="M250.0118,-321.3664C229.3081,-310.1864 204.2174,-296.6374 183.3291,-285.3577"/>
<polygon fill="#000000" stroke="#000000" points="184.8218,-282.1861 174.3597,-280.5142 181.4957,-288.3455 184.8218,-282.1861"/>
</g>
<!-- plot.mosaic.elevation.map -->
<g id="node3" class="node">
<title>plot.mosaic.elevation.map</title>
<polygon fill="#ccffcc" stroke="#000000" points="34.1592,-159.5 34.1592,-203.5 247.8408,-203.5 247.8408,-159.5 34.1592,-159.5"/>
<text text-anchor="middle" x="141" y="-188.3" font-family="Helvetica,sans-Serif" font-size="14.00" fill="#000000">plot.mosaic.elevation.map</text>
<polyline fill="none" stroke="#000000" points="34.1592,-181.5 247.8408,-181.5 "/>
<text text-anchor="middle" x="141" y="-166.3" font-family="Helvetica,sans-Serif" font-size="14.00" fill="#000000">save a plot of the elevation map</text>
</g>
<!-- ned.mosaic.plot -->
<g id="node5" class="node">
<title>ned.mosaic.plot</title>
<path fill="#ffffcc" stroke="#000000" d="M147.7627,-78.5C147.7627,-78.5 310.2373,-78.5 310.2373,-78.5 316.2373,-78.5 322.2373,-84.5 322.2373,-90.5 322.2373,-90.5 322.2373,-110.5 322.2373,-110.5 322.2373,-116.5 316.2373,-122.5 310.2373,-122.5 310.2373,-122.5 147.7627,-122.5 147.7627,-122.5 141.7627,-122.5 135.7627,-116.5 135.7627,-110.5 135.7627,-110.5 135.7627,-90.5 135.7627,-90.5 135.7627,-84.5 141.7627,-78.5 147.7627,-78.5"/>
<text text-anchor="middle" x="229" y="-107.3" font-family="Helvetica,sans-Serif" font-size="14.00" fill="#000000">ned.mosaic.plot</text>
<polyline fill="none" stroke="#000000" points="135.7627,-100.5 322.2373,-100.5 "/>
<text text-anchor="middle" x="229" y="-85.3" font-family="Helvetica,sans-Serif" font-size="14.00" fill="#000000">{run.dir}/{run.label}_ned.pdf</text>
</g>
<!-- plot.mosaic.elevation.map&#45;&gt;ned.mosaic.plot -->
<g id="edge13" class="edge">
<title>plot.mosaic.elevation.map&#45;&gt;ned.mosaic.plot</title>
<path fill="none" stroke="#000000" d="M165.0464,-159.3664C175.0381,-150.1695 186.7715,-139.3694 197.4414,-129.5482"/>
<polygon fill="#000000" stroke="#000000" points="199.9954,-131.9544 204.9827,-122.6068 195.2547,-126.8041 199.9954,-131.9544"/>
</g>
<!-- raw.elevation.map.tiles_output_port -->
<g id="node23" class="node">
<title>raw.elevation.map.tiles_output_port</title>
<ellipse fill="#ffffff" stroke="#000000" cx="439" cy="-31" rx="7" ry="7"/>
</g>
<!-- raw.elevation.map.tiles&#45;&gt;raw.elevation.map.tiles_output_port -->
<g id="edge23" class="edge">
<title>raw.elevation.map.tiles&#45;&gt;raw.elevation.map.tiles_output_port</title>
<path fill="none" stroke="#000000" d="M439,-240.3028C439,-194.2655 439,-89.2553 439,-48.0466"/>
<polygon fill="#000000" stroke="#000000" points="442.5001,-48.021 439,-38.0211 435.5001,-48.0211 442.5001,-48.021"/>
</g>
<!-- ned.mosaic.plot_output_port -->
<g id="node24" class="node">
<title>ned.mosaic.plot_output_port</title>
<ellipse fill="#ffffff" stroke="#000000" cx="407" cy="-31" rx="7" ry="7"/>
</g>
<!-- ned.mosaic.plot&#45;&gt;ned.mosaic.plot_output_port -->
<g id="edge24" class="edge">
<title>ned.mosaic.plot&#45;&gt;ned.mosaic.plot_output_port</title>
<path fill="none" stroke="#000000" d="M285.8097,-78.3187C322.3485,-64.0521 367.2533,-46.5191 390.8114,-37.3208"/>
<polygon fill="#000000" stroke="#000000" points="392.2378,-40.5213 400.28,-33.6238 389.6918,-34.0007 392.2378,-40.5213"/>
</g>
<!-- mosaic.elevation.map_output_port -->
<g id="node25" class="node">
<title>mosaic.elevation.map_output_port</title>
<ellipse fill="#ffffff" stroke="#000000" cx="471" cy="-31" rx="7" ry="7"/>
</g>
<!-- mosaic.elevation.map&#45;&gt;mosaic.elevation.map_output_port -->
<g id="edge25" class="edge">
<title>mosaic.elevation.map&#45;&gt;mosaic.elevation.map_output_port</title>
<path fill="none" stroke="#000000" d="M782.9199,-240.3028C709.8718,-191.2864 537.1951,-75.4179 485.7261,-40.8814"/>
<polygon fill="#000000" stroke="#000000" points="487.3679,-37.7682 477.1139,-35.1025 483.4675,-43.5808 487.3679,-37.7682"/>
</g>
<!-- ned.xmin -->
<g id="node7" class="node">
<title>ned.xmin</title>
<path fill="#ffffcc" stroke="#000000" d="M200.3069,-582C200.3069,-582 151.6931,-582 151.6931,-582 145.6931,-582 139.6931,-576 139.6931,-570 139.6931,-570 139.6931,-558 139.6931,-558 139.6931,-552 145.6931,-546 151.6931,-546 151.6931,-546 200.3069,-546 200.3069,-546 206.3069,-546 212.3069,-552 212.3069,-558 212.3069,-558 212.3069,-570 212.3069,-570 212.3069,-576 206.3069,-582 200.3069,-582"/>
<text text-anchor="middle" x="176" y="-559.8" font-family="Helvetica,sans-Serif" font-size="14.00" fill="#000000">ned.xmin</text>
</g>
<!-- ned.xmin&#45;&gt;define.region.to.map -->
<g id="edge2" class="edge">
<title>ned.xmin&#45;&gt;define.region.to.map</title>
<path fill="none" stroke="#000000" d="M199.4678,-545.8314C211.0327,-536.8779 225.1404,-525.9558 237.6183,-516.2955"/>
<polygon fill="#000000" stroke="#000000" points="239.775,-519.0521 245.5397,-510.1628 235.4898,-513.5171 239.775,-519.0521"/>
</g>
<!-- ned.xmax -->
<g id="node8" class="node">
<title>ned.xmax</title>
<path fill="#ffffcc" stroke="#000000" d="M109.1969,-582C109.1969,-582 56.8031,-582 56.8031,-582 50.8031,-582 44.8031,-576 44.8031,-570 44.8031,-570 44.8031,-558 44.8031,-558 44.8031,-552 50.8031,-546 56.8031,-546 56.8031,-546 109.1969,-546 109.1969,-546 115.1969,-546 121.1969,-552 121.1969,-558 121.1969,-558 121.1969,-570 121.1969,-570 121.1969,-576 115.1969,-582 109.1969,-582"/>
<text text-anchor="middle" x="83" y="-559.8" font-family="Helvetica,sans-Serif" font-size="14.00" fill="#000000">ned.xmax</text>
</g>
<!-- ned.xmax&#45;&gt;define.region.to.map -->
<g id="edge3" class="edge">
<title>ned.xmax&#45;&gt;define.region.to.map</title>
<path fill="none" stroke="#000000" d="M121.5393,-549.0816C147.9437,-538.8605 183.3914,-525.1388 212.9143,-513.7106"/>
<polygon fill="#000000" stroke="#000000" points="214.2104,-516.962 222.2726,-510.088 211.6834,-510.4341 214.2104,-516.962"/>
</g>
<!-- ned.ymin -->
<g id="node9" class="node">
<title>ned.ymin</title>
<path fill="#ffffcc" stroke="#000000" d="M386.3069,-582C386.3069,-582 337.6931,-582 337.6931,-582 331.6931,-582 325.6931,-576 325.6931,-570 325.6931,-570 325.6931,-558 325.6931,-558 325.6931,-552 331.6931,-546 337.6931,-546 337.6931,-546 386.3069,-546 386.3069,-546 392.3069,-546 398.3069,-552 398.3069,-558 398.3069,-558 398.3069,-570 398.3069,-570 398.3069,-576 392.3069,-582 386.3069,-582"/>
<text text-anchor="middle" x="362" y="-559.8" font-family="Helvetica,sans-Serif" font-size="14.00" fill="#000000">ned.ymin</text>
</g>
<!-- ned.ymin&#45;&gt;define.region.to.map -->
<g id="edge4" class="edge">
<title>ned.ymin&#45;&gt;define.region.to.map</title>
<path fill="none" stroke="#000000" d="M338.5322,-545.8314C326.9673,-536.8779 312.8596,-525.9558 300.3817,-516.2955"/>
<polygon fill="#000000" stroke="#000000" points="302.5102,-513.5171 292.4603,-510.1628 298.225,-519.0521 302.5102,-513.5171"/>
</g>
<!-- ned.ymax -->
<g id="node10" class="node">
<title>ned.ymax</title>
<path fill="#ffffcc" stroke="#000000" d="M295.1969,-582C295.1969,-582 242.8031,-582 242.8031,-582 236.8031,-582 230.8031,-576 230.8031,-570 230.8031,-570 230.8031,-558 230.8031,-558 230.8031,-552 236.8031,-546 242.8031,-546 242.8031,-546 295.1969,-546 295.1969,-546 301.1969,-546 307.1969,-552 307.1969,-558 307.1969,-558 307.1969,-570 307.1969,-570 307.1969,-576 301.1969,-582 295.1969,-582"/>
<text text-anchor="middle" x="269" y="-559.8" font-family="Helvetica,sans-Serif" font-size="14.00" fill="#000000">ned.ymax</text>
</g>
<!-- ned.ymax&#45;&gt;define.region.to.map -->
<g id="edge5" class="edge">
<title>ned.ymax&#45;&gt;define.region.to.map</title>
<path fill="none" stroke="#000000" d="M269,-545.8314C269,-538.131 269,-528.9743 269,-520.4166"/>
<polygon fill="#000000" stroke="#000000" points="272.5001,-520.4132 269,-510.4133 265.5001,-520.4133 272.5001,-520.4132"/>
</g>
<!-- run.label -->
<g id="node11" class="node">
<title>run.label</title>
<path fill="#ffffcc" stroke="#000000" d="M140.7038,-438C140.7038,-438 95.2962,-438 95.2962,-438 89.2962,-438 83.2962,-432 83.2962,-426 83.2962,-426 83.2962,-414 83.2962,-414 83.2962,-408 89.2962,-402 95.2962,-402 95.2962,-402 140.7038,-402 140.7038,-402 146.7038,-402 152.7038,-408 152.7038,-414 152.7038,-414 152.7038,-426 152.7038,-426 152.7038,-432 146.7038,-438 140.7038,-438"/>
<text text-anchor="middle" x="118" y="-415.8" font-family="Helvetica,sans-Serif" font-size="14.00" fill="#000000">run.label</text>
</g>
<!-- run.label&#45;&gt;get.elevation.map -->
<g id="edge9" class="edge">
<title>run.label&#45;&gt;get.elevation.map</title>
<path fill="none" stroke="#000000" d="M153.0091,-404.5191C175.5202,-394.5648 205.3464,-381.3757 231.5086,-369.8069"/>
<polygon fill="#000000" stroke="#000000" points="233.231,-372.8722 240.9612,-365.627 230.4,-366.4702 233.231,-372.8722"/>
</g>
<!-- run.label&#45;&gt;plot.mosaic.elevation.map -->
<g id="edge14" class="edge">
<title>run.label&#45;&gt;plot.mosaic.elevation.map</title>
<path fill="none" stroke="#000000" d="M97.9353,-401.7663C63.9082,-368.5625 1.6758,-296.4535 35,-240 42.5963,-227.1314 54.1485,-216.8985 66.8735,-208.83"/>
<polygon fill="#000000" stroke="#000000" points="68.9739,-211.6561 75.8363,-203.5841 65.4379,-205.6148 68.9739,-211.6561"/>
</g>
<!-- run.dir -->
<g id="node12" class="node">
<title>run.dir</title>
<path fill="#ffffcc" stroke="#000000" d="M214.6835,-438C214.6835,-438 183.3165,-438 183.3165,-438 177.3165,-438 171.3165,-432 171.3165,-426 171.3165,-426 171.3165,-414 171.3165,-414 171.3165,-408 177.3165,-402 183.3165,-402 183.3165,-402 214.6835,-402 214.6835,-402 220.6835,-402 226.6835,-408 226.6835,-414 226.6835,-414 226.6835,-426 226.6835,-426 226.6835,-432 220.6835,-438 214.6835,-438"/>
<text text-anchor="middle" x="199" y="-415.8" font-family="Helvetica,sans-Serif" font-size="14.00" fill="#000000">run.dir</text>
</g>
<!-- run.dir&#45;&gt;get.elevation.map -->
<g id="edge10" class="edge">
<title>run.dir&#45;&gt;get.elevation.map</title>
<path fill="none" stroke="#000000" d="M220.8027,-401.8706C231.5254,-392.9544 244.7003,-381.9992 256.7288,-371.9973"/>
<polygon fill="#000000" stroke="#000000" points="258.979,-374.6781 264.4303,-365.5933 254.5034,-369.2958 258.979,-374.6781"/>
</g>
<!-- ned.resolution -->
<g id="node13" class="node">
<title>ned.resolution</title>
<path fill="#ffffcc" stroke="#000000" d="M475.9512,-438C475.9512,-438 396.0488,-438 396.0488,-438 390.0488,-438 384.0488,-432 384.0488,-426 384.0488,-426 384.0488,-414 384.0488,-414 384.0488,-408 390.0488,-402 396.0488,-402 396.0488,-402 475.9512,-402 475.9512,-402 481.9512,-402 487.9512,-408 487.9512,-414 487.9512,-414 487.9512,-426 487.9512,-426 487.9512,-432 481.9512,-438 475.9512,-438"/>
<text text-anchor="middle" x="436" y="-415.8" font-family="Helvetica,sans-Serif" font-size="14.00" fill="#000000">ned.resolution</text>
</g>
<!-- ned.resolution&#45;&gt;get.elevation.map -->
<g id="edge11" class="edge">
<title>ned.resolution&#45;&gt;get.elevation.map</title>
<path fill="none" stroke="#000000" d="M401.637,-401.8706C383.7714,-392.4449 361.5866,-380.7405 341.7833,-370.2926"/>
<polygon fill="#000000" stroke="#000000" points="343.3539,-367.164 332.8761,-365.5933 340.0875,-373.3552 343.3539,-367.164"/>
</g>
<!-- ned.polygon&#45;&gt;get.elevation.map -->
<g id="edge12" class="edge">
<title>ned.polygon&#45;&gt;get.elevation.map</title>
<path fill="none" stroke="#000000" d="M291,-401.8706C291,-394.0583 291,-384.6807 291,-375.7504"/>
<polygon fill="#000000" stroke="#000000" points="294.5001,-375.5932 291,-365.5933 287.5001,-375.5933 294.5001,-375.5932"/>
</g>
<!-- mosaic.elevation.raster.layer&#45;&gt;plot.mosaic.elevation.map -->
<g id="edge15" class="edge">
<title>mosaic.elevation.raster.layer&#45;&gt;plot.mosaic.elevation.map</title>
<path fill="none" stroke="#000000" d="M141,-244.1198C141,-235.0879 141,-223.9388 141,-213.5629"/>
<polygon fill="#000000" stroke="#000000" points="144.5001,-213.5516 141,-203.5517 137.5001,-213.5517 144.5001,-213.5516"/>
</g>
<!-- run.dir_input_port -->
<g id="node16" class="node">
<title>run.dir_input_port</title>
<ellipse fill="#ffffff" stroke="#000000" cx="173" cy="-629" rx="7" ry="7"/>
</g>
<!-- run.dir_input_port&#45;&gt;run.dir -->
<g id="edge16" class="edge">
<title>run.dir_input_port&#45;&gt;run.dir</title>
<path fill="none" stroke="#000000" d="M165.9371,-628.5263C140.2726,-626.6449 52.5923,-618.7662 36,-598 21.5736,-579.9445 25.8152,-566.7459 36,-546 49.5668,-518.3652 118.5895,-470.9236 162.354,-442.8075"/>
<polygon fill="#000000" stroke="#000000" points="164.4643,-445.6128 171.0132,-437.2844 160.7,-439.7111 164.4643,-445.6128"/>
</g>
<!-- run.label_input_port -->
<g id="node17" class="node">
<title>run.label_input_port</title>
<ellipse fill="#ffffff" stroke="#000000" cx="333" cy="-629" rx="7" ry="7"/>
</g>
<!-- run.label_input_port&#45;&gt;run.label -->
<g id="edge17" class="edge">
<title>run.label_input_port&#45;&gt;run.label</title>
<path fill="none" stroke="#000000" d="M335.8634,-622.1826C338.4741,-616.8623 342.8628,-609.763 349,-606 371.1838,-592.398 389.903,-617.6171 407,-598 446.8517,-552.2742 401.862,-505.4538 350,-474 279.9584,-431.5204 246.1069,-459.9307 162.7072,-437.7785"/>
<polygon fill="#000000" stroke="#000000" points="163.4142,-434.3411 152.8389,-434.985 161.5075,-441.0765 163.4142,-434.3411"/>
</g>
<!-- ned.xmin_input_port -->
<g id="node18" class="node">
<title>ned.xmin_input_port</title>
<ellipse fill="#ffffff" stroke="#000000" cx="237" cy="-629" rx="7" ry="7"/>
</g>
<!-- ned.xmin_input_port&#45;&gt;ned.xmin -->
<g id="edge18" class="edge">
<title>ned.xmin_input_port&#45;&gt;ned.xmin</title>
<path fill="none" stroke="#000000" d="M233.1256,-622.6851C230.0753,-617.9099 225.5861,-611.2944 221,-606 216.0934,-600.3356 210.4983,-594.623 204.9601,-589.3136"/>
<polygon fill="#000000" stroke="#000000" points="207.2127,-586.6285 197.5132,-582.3658 202.4374,-591.7468 207.2127,-586.6285"/>
</g>
<!-- ned.xmax_input_port -->
<g id="node19" class="node">
<title>ned.xmax_input_port</title>
<ellipse fill="#ffffff" stroke="#000000" cx="205" cy="-629" rx="7" ry="7"/>
</g>
<!-- ned.xmax_input_port&#45;&gt;ned.xmax -->
<g id="edge19" class="edge">
<title>ned.xmax_input_port&#45;&gt;ned.xmax</title>
<path fill="none" stroke="#000000" d="M202.1366,-622.1826C199.5259,-616.8623 195.1372,-609.763 189,-606 166.8162,-592.398 155.1975,-607.5718 131,-598 124.6198,-595.4762 118.2823,-591.9352 112.4046,-588.0848"/>
<polygon fill="#000000" stroke="#000000" points="114.3662,-585.1855 104.1706,-582.3045 110.3442,-590.9148 114.3662,-585.1855"/>
</g>
<!-- ned.ymin_input_port -->
<g id="node20" class="node">
<title>ned.ymin_input_port</title>
<ellipse fill="#ffffff" stroke="#000000" cx="301" cy="-629" rx="7" ry="7"/>
</g>
<!-- ned.ymin_input_port&#45;&gt;ned.ymin -->
<g id="edge20" class="edge">
<title>ned.ymin_input_port&#45;&gt;ned.ymin</title>
<path fill="none" stroke="#000000" d="M304.8744,-622.6851C307.9247,-617.9099 312.4139,-611.2944 317,-606 321.9066,-600.3356 327.5017,-594.623 333.0399,-589.3136"/>
<polygon fill="#000000" stroke="#000000" points="335.5626,-591.7468 340.4868,-582.3658 330.7873,-586.6285 335.5626,-591.7468"/>
</g>
<!-- ned.ymax_input_port -->
<g id="node21" class="node">
<title>ned.ymax_input_port</title>
<ellipse fill="#ffffff" stroke="#000000" cx="269" cy="-629" rx="7" ry="7"/>
</g>
<!-- ned.ymax_input_port&#45;&gt;ned.ymax -->
<g id="edge21" class="edge">
<title>ned.ymax_input_port&#45;&gt;ned.ymax</title>
<path fill="none" stroke="#000000" d="M269,-621.7955C269,-614.5815 269,-603.016 269,-592.1195"/>
<polygon fill="#000000" stroke="#000000" points="272.5001,-592.0413 269,-582.0414 265.5001,-592.0414 272.5001,-592.0413"/>
</g>
<!-- ned.resolution_input_port -->
<g id="node22" class="node">
<title>ned.resolution_input_port</title>
<ellipse fill="#ffffff" stroke="#000000" cx="365" cy="-629" rx="7" ry="7"/>
</g>
<!-- ned.resolution_input_port&#45;&gt;ned.resolution -->
<g id="edge22" class="edge">
<title>ned.resolution_input_port&#45;&gt;ned.resolution</title>
<path fill="none" stroke="#000000" d="M372.4169,-628.5183C388.1078,-627.0521 424.4927,-621.1895 440,-598 470.3126,-552.6708 456.9478,-485.2868 445.7084,-447.7707"/>
<polygon fill="#000000" stroke="#000000" points="448.98,-446.5075 442.6327,-438.0244 442.3045,-448.6141 448.98,-446.5075"/>
</g>
</g>
</svg>
